<svg width="423" height="101" viewBox="0 0 423 101" fill="none" xmlns="http://www.w3.org/2000/svg">
<rect y="1" width="111" height="100" rx="10" fill="#B48DDE"/>
<path d="M40.264 73C38.856 73 37.5547 72.6587 36.36 71.976C35.208 71.2933 34.2907 70.376 33.608 69.224C32.9253 68.0293 32.584 66.728 32.584 65.32V34.6C32.584 33.192 32.9253 31.912 33.608 30.76C34.2907 29.5653 35.208 28.6267 36.36 27.944C37.5547 27.2613 38.856 26.92 40.264 26.92H78.536V32.104H40.264C39.5813 32.104 38.984 32.36 38.472 32.872C38.0027 33.3413 37.768 33.9173 37.768 34.6V65.32C37.768 66.0027 38.0027 66.6 38.472 67.112C38.984 67.5813 39.5813 67.816 40.264 67.816H78.536V73H40.264ZM89.881 73C88.825 73 87.849 72.744 86.953 72.232C86.089 71.688 85.385 70.984 84.841 70.12C84.329 69.224 84.073 68.248 84.073 67.192V50.968C84.073 49.912 84.329 48.952 84.841 48.088C85.385 47.192 86.089 46.488 86.953 45.976C87.849 45.432 88.825 45.16 89.881 45.16H106.585C107.673 45.16 108.649 45.432 109.513 45.976C110.409 46.488 111.113 47.192 111.625 48.088C112.169 48.952 112.441 49.912 112.441 50.968V67.192C112.441 68.248 112.169 69.224 111.625 70.12C111.113 70.984 110.409 71.688 109.513 72.232C108.649 72.744 107.673 73 106.585 73H89.881ZM89.881 69.064H106.585C107.097 69.064 107.529 68.888 107.881 68.536C108.265 68.152 108.457 67.704 108.457 67.192V50.968C108.457 50.456 108.265 50.024 107.881 49.672C107.529 49.288 107.097 49.096 106.585 49.096H89.881C89.369 49.096 88.921 49.288 88.537 49.672C88.185 50.024 88.009 50.456 88.009 50.968V67.192C88.009 67.704 88.185 68.152 88.537 68.536C88.921 68.888 89.369 69.064 89.881 69.064Z" fill="#F5F5F5"/>
<path d="M121.819 73C120.731 73 119.739 72.744 118.843 72.232C117.979 71.688 117.275 70.984 116.731 70.12C116.219 69.224 115.963 68.248 115.963 67.192V50.968C115.963 49.912 116.219 48.952 116.731 48.088C117.275 47.192 117.979 46.488 118.843 45.976C119.739 45.432 120.731 45.16 121.819 45.16H140.395V36.04H144.331V73H121.819ZM121.819 69.064H138.523C139.035 69.064 139.467 68.888 139.819 68.536C140.203 68.152 140.395 67.704 140.395 67.192V50.968C140.395 50.456 140.203 50.024 139.819 49.672C139.467 49.288 139.035 49.096 138.523 49.096H121.819C121.307 49.096 120.859 49.288 120.475 49.672C120.123 50.024 119.947 50.456 119.947 50.968V67.192C119.947 67.704 120.123 68.152 120.475 68.536C120.859 68.888 121.307 69.064 121.819 69.064ZM154.194 73C153.138 73 152.162 72.744 151.266 72.232C150.402 71.688 149.698 70.984 149.154 70.12C148.642 69.224 148.386 68.248 148.386 67.192V50.968C148.386 49.912 148.642 48.952 149.154 48.088C149.698 47.192 150.402 46.488 151.266 45.976C152.162 45.432 153.138 45.16 154.194 45.16H170.898C171.986 45.16 172.962 45.432 173.826 45.976C174.722 46.488 175.426 47.192 175.938 48.088C176.482 48.952 176.754 49.912 176.754 50.968V61.048H152.322V67.192C152.322 67.704 152.498 68.152 152.85 68.536C153.234 68.888 153.682 69.064 154.194 69.064H176.754V73H154.194ZM152.322 57.112H172.77V50.968C172.77 50.456 172.578 50.024 172.194 49.672C171.842 49.288 171.41 49.096 170.898 49.096H154.194C153.682 49.096 153.234 49.288 152.85 49.672C152.498 50.024 152.322 50.456 152.322 50.968V57.112ZM200.698 73C199.642 73 198.666 72.744 197.77 72.232C196.906 71.72 196.218 71.032 195.706 70.168C195.194 69.272 194.938 68.296 194.938 67.24V44.2C194.938 43.144 195.194 42.184 195.706 41.32C196.218 40.424 196.906 39.72 197.77 39.208C198.666 38.696 199.642 38.44 200.698 38.44H229.402V42.328H200.698C200.186 42.328 199.738 42.52 199.354 42.904C199.002 43.256 198.826 43.688 198.826 44.2V67.24C198.826 67.752 199.002 68.2 199.354 68.584C199.738 68.936 200.186 69.112 200.698 69.112H229.402V73H200.698ZM239.975 73C238.919 73 237.943 72.744 237.047 72.232C236.183 71.688 235.479 70.984 234.935 70.12C234.423 69.224 234.167 68.248 234.167 67.192V50.968C234.167 49.912 234.423 48.952 234.935 48.088C235.479 47.192 236.183 46.488 237.047 45.976C237.943 45.432 238.919 45.16 239.975 45.16H256.679C257.767 45.16 258.743 45.432 259.607 45.976C260.503 46.488 261.207 47.192 261.719 48.088C262.263 48.952 262.535 49.912 262.535 50.968V67.192C262.535 68.248 262.263 69.224 261.719 70.12C261.207 70.984 260.503 71.688 259.607 72.232C258.743 72.744 257.767 73 256.679 73H239.975ZM239.975 69.064H256.679C257.191 69.064 257.623 68.888 257.975 68.536C258.359 68.152 258.551 67.704 258.551 67.192V50.968C258.551 50.456 258.359 50.024 257.975 49.672C257.623 49.288 257.191 49.096 256.679 49.096H239.975C239.463 49.096 239.015 49.288 238.631 49.672C238.279 50.024 238.103 50.456 238.103 50.968V67.192C238.103 67.704 238.279 68.152 238.631 68.536C239.015 68.888 239.463 69.064 239.975 69.064ZM267.545 73V45.16H304.313C305.401 45.16 306.377 45.432 307.241 45.976C308.137 46.488 308.841 47.192 309.353 48.088C309.865 48.952 310.121 49.912 310.121 50.968V73H306.233V50.968C306.233 50.456 306.041 50.024 305.657 49.672C305.273 49.288 304.825 49.096 304.313 49.096H292.745C292.233 49.096 291.785 49.288 291.401 49.672C291.049 50.024 290.873 50.456 290.873 50.968V73H286.889V50.968C286.889 50.456 286.697 50.024 286.313 49.672C285.961 49.288 285.529 49.096 285.017 49.096H273.401C272.889 49.096 272.441 49.288 272.057 49.672C271.705 50.024 271.529 50.456 271.529 50.968V73H267.545Z" fill="black"/>
</svg>
